<svg xmlns="http://www.w3.org/2000/svg" width="2850" height="1390" viewBox="0 0 2850 1390">
  <metadata><?xpacket begin="﻿" id="W5M0MpCehiHzreSzNTczkc9d"?>
<x:xmpmeta xmlns:x="adobe:ns:meta/" x:xmptk="Adobe XMP Core 5.6-c140 79.160451, 2017/05/06-01:08:21        ">
   <rdf:RDF xmlns:rdf="http://www.w3.org/1999/02/22-rdf-syntax-ns#">
      <rdf:Description rdf:about=""/>
   </rdf:RDF>
</x:xmpmeta>
                                                                                                    
                                                                                                    
                                                                                                    
                                                                                                    
                                                                                                    
                                                                                                    
                                                                                                    
                                                                                                    
                                                                                                    
                                                                                                    
                                                                                                    
                                                                                                    
                                                                                                    
                                                                                                    
                                                                                                    
                                                                                                    
                                                                                                    
                                                                                                    
                                                                                                    
                                                                                                    
                           
<?xpacket end="w"?></metadata>
<defs>
    <style>
      .cls-1 {
        fill: #3f8c00;
        fill-rule: evenodd;
        opacity: 0.57;
      }
    </style>
  </defs>
  <path class="cls-1" d="M0,0.7H2854S1414.09-9.975,955,182.84,331.9,474.909,269,827.65,157.055,1385.54,87,1335.52-2,1122.8-2,1122.8"/>
  <path id="Shape_1_copy" data-name="Shape 1 copy" class="cls-1" d="M0,0.7H2854S2219.09-40.553,1760,152.261,273.9,42.82,211,395.561,161.055,833.794,91,783.777-4,407.526-4,407.526"/>
  <path class="cls-1" d="M-4,.7H2850S1353.44,151.589,949,236.02c-475.621,99.291-657.1,120.563-720,473.3S138.055,1086.4,68,1036.38-6,1122.8-6,1122.8M-4,.7H2850S1353.44,151.589,949,236.02c-475.621,99.291-657.1,120.563-720,473.3S138.055,1086.4,68,1036.38-6,1122.8-6,1122.8M-4,.7H2850S1353.44,151.589,949,236.02c-475.621,99.291-657.1,120.563-720,473.3S138.055,1086.4,68,1036.38-6,1122.8-6,1122.8"/>
</svg>
