<svg xmlns="http://www.w3.org/2000/svg" width="2850" height="1390" viewBox="0 0 2850 1390">
  <metadata><?xpacket begin="﻿" id="W5M0MpCehiHzreSzNTczkc9d"?>
<x:xmpmeta xmlns:x="adobe:ns:meta/" x:xmptk="Adobe XMP Core 5.6-c140 79.160451, 2017/05/06-01:08:21        ">
   <rdf:RDF xmlns:rdf="http://www.w3.org/1999/02/22-rdf-syntax-ns#">
      <rdf:Description rdf:about=""/>
   </rdf:RDF>
</x:xmpmeta>
                                                                                                    
                                                                                                    
                                                                                                    
                                                                                                    
                                                                                                    
                                                                                                    
                                                                                                    
                                                                                                    
                                                                                                    
                                                                                                    
                                                                                                    
                                                                                                    
                                                                                                    
                                                                                                    
                                                                                                    
                                                                                                    
                                                                                                    
                                                                                                    
                                                                                                    
                                                                                                    
                           
<?xpacket end="w"?></metadata>
<defs>
    <style>
      .cls-1 {
        fill: #3f8c00;
        fill-opacity: 0.57;
        fill-rule: evenodd;
      }
    </style>
  </defs>
  <path class="cls-1" d="M-3.094-7.2H2856.56s-249.23,112.5-681.92,69.8c-386.65-38.158-809.41,116.914-869.89,157.047-168.44,111.767-552.806-16.389-687.919,55.522s-346.36-35.291-486.941,84.076S-5.094,438.556-5.094,438.556Z"/>
  <path id="Shape_2_copy" data-name="Shape 2 copy" class="cls-1" d="M-3.094-7.2H2856.56c20.79-5.669-704.57,16.636-1006.88,145.943-82.85,35.44-425.98-59.616-721.91-34.9-225.612,18.843-418.225,148.14-479.942,217.328-116.389,130.476-348.582,78.348-507.939,69.8C-16.9,382.554-5.094,438.556-5.094,438.556Z"/>
  <path id="Shape_2_copy_2" data-name="Shape 2 copy 2" class="cls-1" d="M-3.094-7.2H2856.56c20.79-5.669-985.54-75.372-1287.84,53.935-82.86,35.44-188.02,106.95-483.94,131.665C859.163,197.24,709.545,251.979,647.828,321.167,531.439,451.643,283.247,156.805,123.891,148.256-32.9,139.845-5.094,438.556-5.094,438.556Z"/>
</svg>
